<?xml version="1.0" encoding="UTF-8"?>
<svg width="39px" height="32px" viewBox="0 0 39 32" version="1.1" xmlns="http://www.w3.org/2000/svg" xmlns:xlink="http://www.w3.org/1999/xlink">
    <!-- Generator: Sketch 51.3 (57544) - http://www.bohemiancoding.com/sketch -->
    <title>iMac-grey</title>
    <desc>Created with Sketch.</desc>
    <defs></defs>
    <g id="Page-1" stroke="none" stroke-width="1" fill="none" fill-rule="evenodd">
        <g id="iMac-grey" fill="#E1E1E1" fill-rule="nonzero">
            <path d="M37.1951782,0.15895996 L1.35650636,0.15895996 C0.67799072,0.15895996 0.12584228,0.7111084 0.12584228,1.38962404 L0.12584228,25.3872803 C0.12584228,26.0657959 0.67799072,26.617749 1.35650636,26.617749 L15.3826782,26.617749 L15.097522,29.6148194 C15.0973267,29.6216553 15.0715454,30.2919678 14.7141236,30.530249 C14.3793579,30.7532959 13.7879517,31.12771 13.7879517,31.12771 L13.5270142,31.2892334 C13.4453735,31.3450928 13.3686157,31.4470459 13.3984985,31.5654053 C13.4408813,31.7325928 13.650647,31.7757568 13.8285766,31.7947022 C14.2848266,31.8429444 14.8705688,31.8415772 15.1496704,31.8407959 L23.3266235,31.8406006 L23.4020142,31.8407959 C23.440686,31.8407959 23.4852173,31.8409912 23.534436,31.8409912 C23.8416626,31.8409912 24.3299438,31.8363037 24.7231079,31.7947022 C24.9010376,31.7757568 25.1108032,31.7325928 25.153186,31.5654053 C25.1830688,31.4470459 25.106311,31.3450928 25.018811,31.2853272 L24.7651001,31.1284912 C24.7647095,31.1282959 24.1727173,30.7534912 23.837561,30.530249 C23.4801392,30.2919678 23.4543579,29.6216553 23.4535767,29.605249 L23.1690308,26.617749 L37.1951783,26.617749 C37.8736939,26.617749 38.4258424,26.0657959 38.4258424,25.3872803 L38.4258424,1.38962404 C38.4258423,0.7111084 37.8736938,0.15895996 37.1951782,0.15895996 Z M23.6711548,30.7798584 C24.0086548,31.0046631 24.6045532,31.3820068 24.6059204,31.3827881 L24.7684204,31.4859131 C24.7467408,31.489624 24.7213501,31.4931396 24.6914673,31.4962646 C24.2518189,31.5431396 23.6779908,31.5404053 23.4027954,31.5407959 L15.2250611,31.5406006 L15.1488892,31.5407959 C14.8738892,31.54021 14.3000611,31.5429443 13.8602173,31.4962646 C13.828772,31.4929443 13.8022095,31.4892334 13.7797486,31.4853271 L13.9471314,31.3820068 C13.9471314,31.3820068 14.5430298,31.004663 14.8805298,30.7798584 C15.3670532,30.4554443 15.3963501,29.657788 15.396936,29.6337646 L15.6841919,26.617749 L22.8674927,26.617749 L23.1541626,29.623999 C23.1553345,29.6577881 23.1846314,30.4554443 23.6711548,30.7798584 Z M38.1258423,25.3872803 C38.1258423,25.9003662 37.7082642,26.317749 37.1951782,26.317749 L1.35650636,26.317749 C0.84342044,26.317749 0.42584228,25.9003662 0.42584228,25.3872803 L0.42584228,23.0609131 L38.1258423,23.0609131 L38.1258423,25.3872803 Z" id="Shape"></path>
        </g>
    </g>
</svg>