<?xml version="1.0" encoding="UTF-8"?>
<svg width="22px" height="32px" viewBox="0 0 22 32" version="1.1" xmlns="http://www.w3.org/2000/svg" xmlns:xlink="http://www.w3.org/1999/xlink">
    <!-- Generator: Sketch 51.3 (57544) - http://www.bohemiancoding.com/sketch -->
    <title>iPad-grey</title>
    <desc>Created with Sketch.</desc>
    <defs></defs>
    <g id="Page-1" stroke="none" stroke-width="1" fill="none" fill-rule="evenodd">
        <g id="iPad-grey" fill="#E1E1E1" fill-rule="nonzero">
            <path d="M19.9716495,0.233891761 L1.80154639,0.233891761 C0.959729386,0.233891761 0.274967786,0.918814449 0.274967786,1.76063146 L0.274967786,30.3083119 C0.274967786,31.1501289 0.959729386,31.8350515 1.80154639,31.8350515 L19.9716495,31.8350515 C20.8134665,31.8350515 21.4982281,31.1501289 21.4982281,30.3083119 L21.4982281,1.76063146 C21.4982281,0.918814416 20.8134665,0.233891761 19.9716495,0.233891761 Z M21.1683312,30.3083119 C21.1683312,30.9682668 20.6314433,31.5051546 19.9716495,31.5051546 L1.80154639,31.5051546 C1.14175258,31.5051546 0.604864693,30.9682668 0.604864693,30.3083119 L0.604864693,1.76063146 C0.604864693,1.10067655 1.14175258,0.563788668 1.80154639,0.563788668 L19.9716495,0.563788668 C20.6314433,0.563788668 21.1683312,1.10067655 21.1683312,1.76063146 L21.1683312,30.3083119 Z" id="Shape"></path>
            <polygon id="Shape" points="1.19587629 28.7835052 20.5773196 28.7835052 20.5773196 3.3814433 1.19587629 3.3814433"></polygon>
            <path d="M10.8865979,29.429607 C10.4357281,29.429607 10.0687822,29.7965528 10.0687822,30.2474227 C10.0687822,30.6982925 10.4357281,31.0652384 10.8865979,31.0652384 C11.3374678,31.0652384 11.7044137,30.6982925 11.7044137,30.2474227 C11.7044137,29.7965528 11.3374678,29.429607 10.8865979,29.429607 Z M10.8865979,30.7353415 C10.6175902,30.7353415 10.3986791,30.5164304 10.3986791,30.2474227 C10.3986791,29.9784149 10.6175902,29.7595039 10.8865979,29.7595039 C11.1556057,29.7595039 11.3745168,29.9784149 11.3745168,30.2474227 C11.3745168,30.5164304 11.1556057,30.7353415 10.8865979,30.7353415 Z" id="Shape"></path>
            <circle id="Oval" cx="10.9129601" cy="2.03349509" r="1"></circle>
        </g>
    </g>
</svg>