<?xml version="1.0" encoding="UTF-8"?>
<svg width="16px" height="32px" viewBox="0 0 16 32" version="1.1" xmlns="http://www.w3.org/2000/svg" xmlns:xlink="http://www.w3.org/1999/xlink">
    <!-- Generator: Sketch 51.3 (57544) - http://www.bohemiancoding.com/sketch -->
    <title>iPhoneX-grey</title>
    <desc>Created with Sketch.</desc>
    <defs></defs>
    <g id="Page-1" stroke="none" stroke-width="1" fill="none" fill-rule="evenodd">
        <g id="iPhoneX-grey" fill="#E1E1E1" fill-rule="nonzero">
            <path d="M13.3178157,0.29647228 L2.51691365,0.29647228 C1.14739045,0.29647228 0.0330218887,1.41067975 0.0330218887,2.78036404 L0.0330218887,29.4000483 C0.0330218887,30.7697326 1.14739045,31.8841012 2.51691365,31.8841012 L13.3178157,31.8841012 C14.6876611,31.8841012 15.8020296,30.7697326 15.8020296,29.4000483 L15.8020296,2.78036404 C15.8020296,1.41067975 14.6876611,0.29647228 13.3178157,0.29647228 Z M15.5546069,29.4000483 C15.5546069,30.6332957 14.5510631,31.6366785 13.3178157,31.6366785 L2.51691365,31.6366785 C1.28366624,31.6366785 0.280444569,30.6332958 0.280444569,29.4000483 L0.280444569,2.78036404 C0.280444569,1.54711664 1.28366621,0.543894961 2.51691365,0.543894961 L13.3178157,0.543894961 C14.5510631,0.543894961 15.5546069,1.5471166 15.5546069,2.78036404 L15.5546069,29.4000483 Z" id="Shape"></path>
            <path d="M13.2701353,0.950628223 L12.0855348,0.950628223 C11.8342461,0.950628223 11.6296714,1.15520297 11.6296714,1.40649161 L11.6296714,1.62089237 C11.6296714,1.93484213 11.3741946,2.19015782 11.060406,2.19015782 L4.77464561,2.19015782 C4.46085694,2.19015782 4.20538016,1.93484209 4.20538016,1.62089237 L4.20538016,1.40649161 C4.20538016,1.15520294 4.00080541,0.950628223 3.74951677,0.950628223 L2.56491626,0.950628223 C1.52980028,0.950628223 0.687661097,1.79260632 0.687661097,2.8275612 L0.687661097,29.30952 C0.687661097,30.3444749 1.52980028,31.1864529 2.56491626,31.1864529 L13.2701353,31.1864529 C14.3049292,31.1864529 15.1470683,30.3444749 15.1470683,29.30952 L15.1470683,2.8275612 C15.1470683,1.79260632 14.3049291,0.950628223 13.2701353,0.950628223 Z M10.4164787,30.6267115 L5.41849227,30.6267115 C5.33877658,30.6267115 5.27353818,30.5614731 5.27353818,30.4817574 C5.27353818,30.4020216 5.33877658,30.3368033 5.41849227,30.3368033 L10.4164787,30.3368033 C10.4961944,30.3368033 10.5614328,30.4020216 10.5614328,30.4817574 C10.5614328,30.5614731 10.4961944,30.6267115 10.4164787,30.6267115 Z" id="Shape"></path>
        </g>
    </g>
</svg>