<?xml version="1.0" encoding="UTF-8"?>
<svg width="21px" height="40px" viewBox="0 0 21 40" version="1.1" xmlns="http://www.w3.org/2000/svg" xmlns:xlink="http://www.w3.org/1999/xlink">
    <!-- Generator: Sketch 51.3 (57544) - http://www.bohemiancoding.com/sketch -->
    <title>iPhone-white</title>
    <desc>Created with Sketch.</desc>
    <defs></defs>
    <g id="Page-1" stroke="none" stroke-width="1" fill="none" fill-rule="evenodd">
        <g id="iPhone-white" fill="#FFFFFF" fill-rule="nonzero">
            <path d="M17.0925395,0.0246175 L3.45077517,0.0246175 C1.72103883,0.0246175 0.313568125,1.43188475 0.313568125,3.16182454 L0.313568125,36.7832438 C0.313568125,38.5131836 1.72103883,39.9204508 3.45077517,39.9204508 L17.0925395,39.9204508 C18.8222758,39.9204508 20.2297465,38.5131836 20.2297465,36.7832438 L20.2297465,3.16182454 C20.2297465,1.43188475 18.8222758,0.0246175 17.0925395,0.0246175 Z M19.9172465,36.7832438 C19.9172465,38.340861 18.6501567,39.6079509 17.0925395,39.6079509 L3.45077517,39.6079509 C1.893158,39.6079509 0.626068125,38.340861 0.626068125,36.7832438 L0.626068125,3.16182454 C0.626068125,1.60420738 1.89315796,0.3371175 3.45077517,0.3371175 L17.0925395,0.3371175 C18.6501567,0.3371175 19.9172465,1.60420733 19.9172465,3.16182454 L19.9172465,36.7832438 Z" id="Shape"></path>
            <rect id="Rectangle-path" x="1.49561563" y="4.61242675" width="17.5520833" height="30.5729167"></rect>
            <path d="M10.2716573,35.7061767 C9.39559933,35.7061767 8.68311562,36.4188639 8.68311562,37.2947184 C8.68311562,38.1705729 9.39559933,38.8832601 10.2716573,38.8832601 C11.1477152,38.8832601 11.860199,38.1705729 11.860199,37.2947184 C11.860199,36.4188639 11.1477152,35.7061767 10.2716573,35.7061767 Z M10.2716573,38.5707601 C9.56812537,38.5707601 8.99561562,37.9982503 8.99561562,37.2947184 C8.99561562,36.5911865 9.56812537,36.0186767 10.2716573,36.0186767 C10.9751892,36.0186767 11.547699,36.5911865 11.547699,37.2947184 C11.547699,37.9982503 10.9751892,38.5707601 10.2716573,38.5707601 Z" id="Shape"></path>
            <circle id="Oval" cx="7.20280967" cy="2.58117675" r="1"></circle>
            <circle id="Oval" cx="10.2716573" cy="1.35063171" r="1"></circle>
            <path d="M8.72217812,2.81547546 L11.8211365,2.81547546 C11.9106547,2.81547546 11.9838969,2.72758486 11.9838969,2.62016296 C11.9838969,2.51274106 11.9106547,2.42485046 11.8211365,2.42485046 L8.72217812,2.42485046 C8.63265988,2.42485046 8.55941771,2.51274106 8.55941771,2.62016296 C8.55941771,2.72758486 8.63265992,2.81547546 8.72217812,2.81547546 Z" id="Shape"></path>
        </g>
    </g>
</svg>