<?xml version="1.0" encoding="UTF-8"?>
<svg width="17px" height="32px" viewBox="0 0 17 32" version="1.1" xmlns="http://www.w3.org/2000/svg" xmlns:xlink="http://www.w3.org/1999/xlink">
    <!-- Generator: Sketch 51.3 (57544) - http://www.bohemiancoding.com/sketch -->
    <title>iPhone-grey</title>
    <desc>Created with Sketch.</desc>
    <defs></defs>
    <g id="Page-1" stroke="none" stroke-width="1" fill="none" fill-rule="evenodd">
        <g id="iPhone-grey" fill="#E1E1E1" fill-rule="nonzero">
            <path d="M13.6740316,0.019694 L2.76062013,0.019694 C1.37683107,0.019694 0.2508545,1.1455078 0.2508545,2.52945963 L0.2508545,29.426595 C0.2508545,30.8105469 1.37683107,31.9363607 2.76062013,31.9363607 L13.6740316,31.9363607 C15.0578207,31.9363607 16.1837972,30.8105469 16.1837972,29.426595 L16.1837972,2.52945963 C16.1837972,1.1455078 15.0578206,0.019694 13.6740316,0.019694 Z M15.9337972,29.4265951 C15.9337972,30.6726888 14.9201253,31.6863607 13.6740316,31.6863607 L2.76062013,31.6863607 C1.5145264,31.6863607 0.5008545,30.6726888 0.5008545,29.4265951 L0.5008545,2.52945963 C0.5008545,1.2833659 1.51452637,0.269694 2.76062013,0.269694 L13.6740316,0.269694 C14.9201253,0.269694 15.9337972,1.28336587 15.9337972,2.52945963 L15.9337972,29.4265951 Z" id="Shape"></path>
            <rect id="Rectangle-path" x="1.1964925" y="3.6899414" width="14.0416667" height="24.4583333"></rect>
            <path d="M8.21732583,28.5649414 C7.51647947,28.5649414 6.9464925,29.1350911 6.9464925,29.8357747 C6.9464925,30.5364583 7.51647947,31.1066081 8.21732583,31.1066081 C8.9181722,31.1066081 9.48815917,30.5364583 9.48815917,29.8357747 C9.48815917,29.1350911 8.9181722,28.5649414 8.21732583,28.5649414 Z M8.21732583,30.8566081 C7.6545003,30.8566081 7.1964925,30.3986003 7.1964925,29.8357747 C7.1964925,29.2729492 7.6545003,28.8149414 8.21732583,28.8149414 C8.78015137,28.8149414 9.23815917,29.2729492 9.23815917,29.8357747 C9.23815917,30.3986003 8.78015137,30.8566081 8.21732583,30.8566081 Z" id="Shape"></path>
            <circle id="Oval" cx="5.76224773" cy="2.0649414" r="1"></circle>
            <circle id="Oval" cx="8.25378417" cy="1.1169637" r="1"></circle>
            <path d="M6.9777425,2.33050537 L9.45690917,2.33050537 C9.52852377,2.33050537 9.5871175,2.24261477 9.5871175,2.13519287 C9.5871175,2.02777097 9.52852377,1.93988037 9.45690917,1.93988037 L6.9777425,1.93988037 C6.9061279,1.93988037 6.84753417,2.02777097 6.84753417,2.13519287 C6.84753417,2.24261477 6.90612793,2.33050537 6.9777425,2.33050537 Z" id="Shape"></path>
        </g>
    </g>
</svg>