<?xml version="1.0" encoding="UTF-8"?>
<svg width="411px" height="825px" viewBox="0 0 411 825" version="1.1" xmlns="http://www.w3.org/2000/svg" xmlns:xlink="http://www.w3.org/1999/xlink">
    <!-- Generator: Sketch 51.3 (57544) - http://www.bohemiancoding.com/sketch -->
    <title>iPhoneX</title>
    <desc>Created with Sketch.</desc>
    <defs></defs>
    <g id="Page-1" stroke="none" stroke-width="1" fill="none" fill-rule="evenodd">
        <g id="iPhoneX" fill="#2F2F2F" fill-rule="nonzero">
            <path d="M346.251987,0 L64.7396165,0 C29.0446607,0 0,29.10067 0,64.8738375 L0,760.121955 C0,795.895123 29.0446607,825 64.7396165,825 L346.251987,825 C381.95534,825 411,795.895123 411,760.121955 L411,64.8738375 C411,29.10067 381.95534,0 346.251987,0 Z M404.551229,760.121955 C404.551229,792.331689 378.39508,818.537859 346.251987,818.537859 L64.7396165,818.537859 C32.5965234,818.537859 6.44877112,792.33169 6.44877112,760.121955 L6.44877112,64.8738375 C6.44877112,32.6641039 32.5965225,6.46214099 64.7396165,6.46214099 L346.251987,6.46214099 C378.39508,6.46214099 404.551229,32.664103 404.551229,64.8738375 L404.551229,760.121955 Z" id="Shape"></path>
            <path d="M344.322357,18 L313.60013,18 C307.08304,18 301.777461,23.338352 301.777461,29.8956972 L301.777461,35.4904577 C301.777461,43.6829367 295.151754,50.3453672 287.013748,50.3453672 L123.994608,50.3453672 C115.856601,50.3453672 109.230894,43.6829358 109.230894,35.4904577 L109.230894,29.8956972 C109.230894,23.3383511 103.925315,18 97.4082261,18 L66.685999,18 C39.8406045,18 18,39.9713113 18,66.9783274 L18,758.021673 C18,785.028689 39.8406045,807 66.685999,807 L344.322357,807 C371.159396,807 393,785.028689 393,758.021673 L393,66.9783274 C393,39.9713113 371.159396,18 344.322357,18 Z M270.313706,792.393618 L140.69256,792.393618 C138.62516,792.393618 136.933223,790.69123 136.933223,788.611059 C136.933223,786.530363 138.62516,784.8285 140.69256,784.8285 L270.313706,784.8285 C272.381106,784.8285 274.073043,786.530363 274.073043,788.611059 C274.073043,790.69123 272.381106,792.393618 270.313706,792.393618 Z" id="Shape"></path>
        </g>
    </g>
</svg>