<?xml version="1.0" encoding="UTF-8"?>
<svg width="49px" height="40px" viewBox="0 0 49 40" version="1.1" xmlns="http://www.w3.org/2000/svg" xmlns:xlink="http://www.w3.org/1999/xlink">
    <!-- Generator: Sketch 51.3 (57544) - http://www.bohemiancoding.com/sketch -->
    <title>iMac</title>
    <desc>Created with Sketch.</desc>
    <defs></defs>
    <g id="Page-1" stroke="none" stroke-width="1" fill="none" fill-rule="evenodd">
        <g id="iMac" fill="#444444" fill-rule="nonzero">
            <path d="M46.4939728,0.19869995 L1.69563295,0.19869995 C0.8474884,0.19869995 0.15730285,0.8888855 0.15730285,1.73703005 L0.15730285,31.7341003 C0.15730285,32.5822449 0.8474884,33.2721863 1.69563295,33.2721863 L19.2283478,33.2721863 L18.8719025,37.0185242 C18.8716584,37.0270691 18.8394318,37.8649598 18.3926545,38.1628113 C17.9741974,38.4416199 17.2349396,38.9096374 17.2349396,38.9096374 L16.9087677,39.1115418 C16.8067169,39.1813659 16.7107697,39.3088074 16.7481232,39.4567566 C16.8011016,39.665741 17.0633087,39.719696 17.2857208,39.7433777 C17.8560333,39.8036804 18.588211,39.8019714 18.937088,39.8009949 L29.1582794,39.8007507 L29.2525177,39.8009949 C29.3008575,39.8009949 29.3565216,39.801239 29.418045,39.801239 C29.8020783,39.801239 30.4124298,39.7953797 30.9038849,39.7433777 C31.126297,39.719696 31.3885041,39.665741 31.4414826,39.4567566 C31.4788361,39.3088074 31.3828888,39.181366 31.2735138,39.1066589 L30.9563752,38.910614 C30.9558869,38.9103699 30.2158967,38.441864 29.7969513,38.1628113 C29.350174,37.8649598 29.3179474,37.0270691 29.3169709,37.0065613 L28.9612885,33.2721863 L46.4939729,33.2721863 C47.3421174,33.2721863 48.032303,32.5822449 48.032303,31.7341003 L48.032303,1.73703005 C48.0323029,0.8888855 47.3421173,0.19869995 46.4939728,0.19869995 Z M29.5889435,38.474823 C30.0108185,38.7558289 30.7556916,39.2275086 30.7574006,39.2284851 L30.9605256,39.3573914 C30.933426,39.36203 30.9016877,39.3664245 30.8643342,39.3703308 C30.3147736,39.4289245 29.5974885,39.4255066 29.2534943,39.4259948 L19.0313264,39.4257507 L18.9361115,39.4259948 C18.5923615,39.4252624 17.8750764,39.4286804 17.3252716,39.3703308 C17.285965,39.3661804 17.2527619,39.3615418 17.2246857,39.3566589 L17.4339142,39.2275085 C17.4339142,39.2275085 18.1787872,38.7558288 18.6006622,38.4748229 C19.2088165,38.0693053 19.2454376,37.072235 19.24617,37.0422057 L19.6052398,33.2721862 L28.5843659,33.2721862 L28.9427033,37.0299987 C28.9441681,37.0722351 28.9807892,38.0693054 29.5889435,38.474823 Z M47.6573029,31.7341003 C47.6573029,32.3754577 47.1353302,32.8971863 46.4939727,32.8971863 L1.69563295,32.8971863 C1.05427555,32.8971863 0.53230285,32.3754578 0.53230285,31.7341003 L0.53230285,28.8261414 L47.6573029,28.8261414 L47.6573029,31.7341003 Z" id="Shape"></path>
        </g>
    </g>
</svg>