<?xml version="1.0" encoding="UTF-8"?>
<svg width="27px" height="40px" viewBox="0 0 27 40" version="1.1" xmlns="http://www.w3.org/2000/svg" xmlns:xlink="http://www.w3.org/1999/xlink">
    <!-- Generator: Sketch 51.3 (57544) - http://www.bohemiancoding.com/sketch -->
    <title>iPad</title>
    <desc>Created with Sketch.</desc>
    <defs></defs>
    <g id="Page-1" stroke="none" stroke-width="1" fill="none" fill-rule="evenodd">
        <g id="iPad" fill="#2F2F2F" fill-rule="nonzero">
            <path d="M24.9645619,0.292364701 L2.25193299,0.292364701 C1.19966173,0.292364701 0.343709732,1.14851806 0.343709732,2.20078932 L0.343709732,37.8853898 C0.343709732,38.9376611 1.19966173,39.7938144 2.25193299,39.7938144 L24.9645619,39.7938144 C26.0168331,39.7938144 26.8727851,38.9376611 26.8727851,37.8853898 L26.8727851,2.20078932 C26.8727851,1.14851802 26.0168331,0.292364701 24.9645619,0.292364701 Z M26.460414,37.8853898 C26.460414,38.7103334 25.7893041,39.3814433 24.9645619,39.3814433 L2.25193299,39.3814433 C1.42719072,39.3814433 0.756080866,38.7103334 0.756080866,37.8853898 L0.756080866,2.20078932 C0.756080866,1.37584569 1.42719072,0.704735835 2.25193299,0.704735835 L24.9645619,0.704735835 C25.7893041,0.704735835 26.460414,1.37584569 26.460414,2.20078932 L26.460414,37.8853898 Z" id="Shape"></path>
            <polygon id="Shape" points="1.49484536 35.9793814 25.7216495 35.9793814 25.7216495 4.22680412 1.49484536 4.22680412"></polygon>
            <path d="M13.6082474,36.7870087 C13.0446601,36.7870087 12.5859778,37.2456911 12.5859778,37.8092784 C12.5859778,38.3728656 13.0446601,38.831548 13.6082474,38.831548 C14.1718347,38.831548 14.6305171,38.3728656 14.6305171,37.8092784 C14.6305171,37.2456911 14.1718347,36.7870087 13.6082474,36.7870087 Z M13.6082474,38.4191769 C13.2719878,38.4191769 12.9983489,38.145538 12.9983489,37.8092784 C12.9983489,37.4730187 13.2719878,37.1993798 13.6082474,37.1993798 C13.9445071,37.1993798 14.2181459,37.4730187 14.2181459,37.8092784 C14.2181459,38.145538 13.9445071,38.4191769 13.6082474,38.4191769 Z" id="Shape"></path>
            <circle id="Oval" cx="13.6082474" cy="2.50891616" r="1"></circle>
        </g>
    </g>
</svg>