<?xml version="1.0" encoding="UTF-8"?>
<svg width="20px" height="40px" viewBox="0 0 20 40" version="1.1" xmlns="http://www.w3.org/2000/svg" xmlns:xlink="http://www.w3.org/1999/xlink">
    <!-- Generator: Sketch 51.3 (57544) - http://www.bohemiancoding.com/sketch -->
    <title>iPhoneX</title>
    <desc>Created with Sketch.</desc>
    <defs></defs>
    <g id="Page-1" stroke="none" stroke-width="1" fill="none" fill-rule="evenodd">
        <g id="iPhoneX" fill="#2F2F2F" fill-rule="nonzero">
            <path d="M16.6472696,0.370590351 L3.14614206,0.370590351 C1.43423806,0.370590351 0.0412773608,1.76334969 0.0412773608,3.47545505 L0.0412773608,36.7500604 C0.0412773608,38.4621658 1.43423806,39.8551265 3.14614206,39.8551265 L16.6472696,39.8551265 C18.3595764,39.8551265 19.752537,38.4621658 19.752537,36.7500604 L19.752537,3.47545505 C19.752537,1.76334969 18.3595764,0.370590351 16.6472696,0.370590351 Z M19.4432587,36.7500604 C19.4432587,38.2916197 18.1888289,39.5458481 16.6472696,39.5458481 L3.14614206,39.5458481 C1.6045828,39.5458481 0.350555711,38.2916197 0.350555711,36.7500604 L0.350555711,3.47545505 C0.350555711,1.93389579 1.60458276,0.679868701 3.14614206,0.679868701 L16.6472696,0.679868701 C18.1888289,0.679868701 19.4432587,1.93389575 19.4432587,3.47545505 L19.4432587,36.7500604 Z" id="Shape"></path>
            <path d="M16.5876692,1.18828528 L15.1069185,1.18828528 C14.7928077,1.18828528 14.5370893,1.44400371 14.5370893,1.75811452 L14.5370893,2.02611546 C14.5370893,2.41855266 14.2177433,2.73769728 13.8255075,2.73769728 L5.96830701,2.73769728 C5.57607118,2.73769728 5.2567252,2.41855262 5.2567252,2.02611546 L5.2567252,1.75811452 C5.2567252,1.44400367 5.00100676,1.18828528 4.68689596,1.18828528 L3.20614532,1.18828528 C1.91225035,1.18828528 0.859576371,2.2407579 0.859576371,3.53445151 L0.859576371,36.6369 C0.859576371,37.9305936 1.91225035,38.9830662 3.20614532,38.9830662 L16.5876692,38.9830662 C17.8811614,38.9830662 18.9338354,37.9305936 18.9338354,36.6369 L18.9338354,3.53445151 C18.9338354,2.2407579 17.8811614,1.18828528 16.5876692,1.18828528 Z M13.0205984,38.2833894 L6.77311534,38.2833894 C6.67347072,38.2833894 6.59192272,38.2018414 6.59192272,38.1021967 C6.59192272,38.002527 6.67347072,37.9210041 6.77311534,37.9210041 L13.0205984,37.9210041 C13.1202431,37.9210041 13.2017911,38.002527 13.2017911,38.1021967 C13.2017911,38.2018414 13.1202431,38.2833894 13.0205984,38.2833894 Z" id="Shape"></path>
        </g>
    </g>
</svg>