<?xml version="1.0" encoding="UTF-8"?>
<svg width="300px" height="300px" viewBox="0 0 300 300" version="1.1" xmlns="http://www.w3.org/2000/svg" xmlns:xlink="http://www.w3.org/1999/xlink">
    <!-- Generator: Sketch 51.2 (57519) - http://www.bohemiancoding.com/sketch -->
    <title>eye</title>
    <desc>Created with Sketch.</desc>
    <defs></defs>
    <g id="Page-1" stroke="none" stroke-width="1" fill="none" fill-rule="evenodd">
        <g id="eye" fill="#FB48C4" fill-rule="nonzero">
            <path d="M126.585905,270.569645 L93.3424614,288.516274 L82.3366025,252.376558 L44.755788,256.235365 L48.4177709,218.634861 L12.2209238,207.81838 L29.9932447,174.481424 L0.69100692,150.636364 L29.8679912,126.638206 L11.9213627,93.3947619 L48.061079,82.388903 L44.2022714,44.8080885 L81.8027753,48.4700714 L92.6192571,12.2732243 L125.956213,30.0455453 L149.801273,0.743307455 L173.799431,29.9202917 L207.042875,11.9736633 L218.048734,48.1133795 L255.629548,44.2545719 L251.967565,81.8550759 L288.164412,92.6715576 L270.392091,126.008513 L299.694329,149.853573 L270.517345,173.851732 L288.463973,207.095175 L252.324257,218.101034 L256.183065,255.681849 L218.582561,252.019866 L207.766079,288.216713 L174.429123,270.444392 L150.584063,299.74663 L126.585905,270.569645 Z M150.409712,78.0003088 C148.923732,78.0155992 147.505597,78.6239788 146.471252,79.6899075 C145.436906,80.7558363 144.872279,82.1907622 144.903162,83.6750004 L144.903162,98.4987366 C144.874781,100.503474 145.929121,102.36818 147.662453,103.378823 C149.395786,104.389465 151.539566,104.389465 153.272899,103.378823 C155.006231,102.36818 156.060571,100.503474 156.03219,98.4987366 L156.03219,83.6750004 C156.063495,82.1706774 155.483092,80.7179197 154.423544,79.6485322 C153.363996,78.5791446 151.915798,77.9844623 150.409712,78.0003088 Z M109.429383,85.4121676 C107.466453,85.4843431 105.686995,86.5849317 104.747238,88.3080591 C103.807481,90.0311865 103.846631,92.1216034 104.850252,93.8084075 L112.269604,106.77916 C113.149515,108.691118 115.034625,109.942898 117.139919,110.013223 C119.245213,110.083548 121.209817,108.960363 122.215611,107.111395 C123.221405,105.262428 123.095984,103.004614 121.891577,101.278174 L114.472224,88.3074214 C113.470034,86.4717697 111.521589,85.3531061 109.429383,85.4121676 Z M191.332078,85.4121676 C189.30196,85.4178151 187.435996,86.5273847 186.463128,88.3074214 L179.043775,101.278174 C177.839368,103.004614 177.713947,105.262428 178.719741,107.111395 C179.725535,108.960363 181.690139,110.083548 183.795433,110.013223 C185.900727,109.942898 187.785837,108.691118 188.665748,106.77916 L196.0851,93.8084075 C197.102684,92.0951456 197.124856,89.968918 196.143219,88.2348512 C195.161582,86.5007845 193.326204,85.4239732 191.332078,85.4121676 Z M150.467676,107.76356 C118.508352,107.76356 89.5506867,122.777603 68.3910907,146.733653 C66.5363031,148.834864 66.5363031,151.986503 68.3910907,154.087715 C89.551321,178.032191 118.522486,192.999992 150.467676,192.999992 C182.412864,192.999992 211.384027,178.032191 232.544261,154.087715 C234.399049,151.986503 234.399049,148.834864 232.544261,146.733653 C211.384662,122.777603 182.427,107.76356 150.467676,107.76356 Z M150.467676,120.734313 C166.923968,120.734313 180.145085,134.000004 180.145085,150.439619 C180.145085,166.87942 166.923968,180.029109 150.467676,180.029109 C134.011384,180.029109 120.84823,166.87942 120.84823,150.439619 C120.84823,134.000004 134.011384,120.734313 150.467676,120.734313 Z M181.999924,124.613967 C196.355317,129.946607 209.430629,138.789752 220.603741,150.381748 C209.432183,161.963728 196.3563,170.871588 181.999924,176.207401 C187.764067,169.178677 191.21615,160.203301 191.21615,150.439619 C191.21615,140.677606 187.762501,131.659754 181.999924,124.613967 Z M118.877465,124.671837 C113.132208,131.712432 109.661238,140.693929 109.661238,150.439619 C109.661238,160.203301 113.113322,169.178677 118.877465,176.207401 C104.541043,170.869548 91.48997,161.950002 80.3316109,150.381748 C91.4866776,138.808486 104.549354,130.007353 118.877465,124.671837 Z M150.467676,133.705084 C141.313991,133.705084 133.774133,141.237396 133.774133,150.381748 C133.774133,159.526285 141.313991,167.058412 150.467676,167.058412 C159.621361,167.058412 167.161219,159.526285 167.161219,150.381748 C167.161219,141.237396 159.621361,133.705084 150.467676,133.705084 Z M150.467676,144.822798 C153.606793,144.822798 156.03219,147.245773 156.03219,150.381748 C156.03219,153.517723 153.606793,155.940698 150.467676,155.940698 C147.328559,155.940698 144.903162,153.517723 144.903162,150.381748 C144.903162,147.245773 147.328559,144.822798 150.467676,144.822798 Z" id="Combined-Shape"></path>
        </g>
    </g>
</svg>