<?xml version="1.0" encoding="UTF-8"?>
<svg width="167px" height="115px" viewBox="0 0 167 115" version="1.1" xmlns="http://www.w3.org/2000/svg" xmlns:xlink="http://www.w3.org/1999/xlink">
    <!-- Generator: Sketch 51.2 (57519) - http://www.bohemiancoding.com/sketch -->
    <title>icon-mask</title>
    <desc>Created with Sketch.</desc>
    <defs></defs>
    <g id="Page-1" stroke="none" stroke-width="1" fill="none" fill-rule="evenodd">
        <g id="icon-mask" fill="#FB48C4" fill-rule="nonzero">
            <path d="M83.4097124,0.000308770947 C84.9157977,-0.0155376537 86.3639961,0.579144604 87.4235441,1.64853216 C88.483092,2.71791972 89.0634948,4.17067743 89.0321904,5.67500042 L89.0321904,20.4987366 C89.060571,22.503474 88.0062314,24.3681802 86.2728988,25.3788228 C84.5395662,26.3894653 82.395786,26.3894653 80.6624534,25.3788228 C78.9291208,24.3681802 77.8747812,22.503474 77.9031618,20.4987366 L77.9031618,5.67500042 C77.8722789,4.19076219 78.4369063,2.75583632 79.4712517,1.68990753 C80.505597,0.623978752 81.9237319,0.0155992096 83.4097124,0.000308770947 Z M42.4293834,7.41216758 C44.5215888,7.35310609 46.4700337,8.4717697 47.4722244,10.3074214 L54.8915768,23.2781744 C56.095984,25.0046135 56.2214051,27.2624278 55.2156109,29.1113953 C54.2098168,30.9603629 52.2452128,32.0835483 50.1399191,32.0132234 C48.0346254,31.9428985 46.1495149,30.6911178 45.2696042,28.7791604 L37.8502519,15.8084075 C36.8466314,14.1216034 36.8074809,12.0311865 37.7472381,10.3080591 C38.6869953,8.58493167 40.4664527,7.48434314 42.4293834,7.41216758 Z M124.332078,7.41216758 C126.326204,7.42397323 128.161582,8.50078445 129.143219,10.2348512 C130.124856,11.968918 130.102684,14.0951456 129.0851,15.8084075 L121.665748,28.7791604 C120.785837,30.6911178 118.900727,31.9428985 116.795433,32.0132234 C114.690139,32.0835483 112.725535,30.9603629 111.719741,29.1113953 C110.713947,27.2624278 110.839368,25.0046135 112.043775,23.2781744 L119.463128,10.3074214 C120.435996,8.52738469 122.30196,7.41781515 124.332078,7.41216758 Z M83.4676761,29.7635601 C115.427,29.7635601 144.384662,44.7776026 165.544261,68.7336527 C167.399049,70.8348642 167.399049,73.9865032 165.544261,76.0877147 C144.384027,100.032191 115.412864,114.999992 83.4676761,114.999992 C51.522486,114.999992 22.551321,100.032191 1.3910907,76.0877147 C-0.463696899,73.9865032 -0.463696899,70.8348642 1.3910907,68.7336527 C22.5506867,44.7776026 51.5083521,29.7635601 83.4676761,29.7635601 Z M83.4676761,42.734313 C67.0113838,42.734313 53.8482304,56.0000037 53.8482304,72.4396192 C53.8482304,88.8794201 67.0113838,102.029109 83.4676761,102.029109 C99.9239684,102.029109 113.145085,88.8794201 113.145085,72.4396192 C113.145085,56.0000037 99.9239684,42.734313 83.4676761,42.734313 Z M114.999924,46.6139665 C120.762501,53.6597545 124.21615,62.6776063 124.21615,72.4396192 C124.21615,82.2033014 120.764067,91.1786774 114.999924,98.2074009 C129.3563,92.8715881 142.432183,83.9637282 153.603741,72.3817482 C142.430629,60.7897521 129.355317,51.9466075 114.999924,46.6139665 Z M51.8774649,46.6718375 C37.5493545,52.0073534 24.4866776,60.808486 13.3316109,72.3817482 C24.48997,83.9500024 37.5410429,92.8695478 51.8774649,98.2074009 C46.1133218,91.1786774 42.6612382,82.2033014 42.6612382,72.4396192 C42.6612382,62.6939289 46.1322078,53.7124319 51.8774649,46.6718375 Z M83.4676761,55.7050845 C92.6213614,55.7050845 100.161219,63.2373964 100.161219,72.3817482 C100.161219,81.5262855 92.6213614,89.058412 83.4676761,89.058412 C74.3139908,89.058412 66.7741333,81.5262855 66.7741333,72.3817482 C66.7741333,63.2373964 74.3139908,55.7050845 83.4676761,55.7050845 Z M83.4676761,66.8227985 C80.3285592,66.8227985 77.9031618,69.2457735 77.9031618,72.3817482 C77.9031618,75.517723 80.3285592,77.940698 83.4676761,77.940698 C86.6067929,77.940698 89.0321904,75.517723 89.0321904,72.3817482 C89.0321904,69.2457735 86.6067929,66.8227985 83.4676761,66.8227985 Z" id="Combined-Shape"></path>
        </g>
    </g>
</svg>